<svg xmlns="http://www.w3.org/2000/svg" width="189" height="32" viewBox="0 0 189 32" fill="none"><script xmlns=""/>
<mask id="mask0_2432_340" style="mask-type:luminance" maskUnits="userSpaceOnUse" x="0" y="0" width="189" height="32">
<path d="M188.912 0H0V32H188.912V0Z" fill="white"/>
</mask>
<g mask="url(#mask0_2432_340)">
<path d="M5.047 10.59C4.717 10.867 4.604 11.275 4.794 11.502C4.984 11.729 5.406 11.688 5.736 11.412C6.066 11.136 6.179 10.727 5.989 10.5C5.799 10.273 5.377 10.314 5.047 10.59ZM4.247 8.52198C4.92488 8.27503 5.6299 8.11019 6.347 8.03098C7.32448 7.93675 8.28707 7.72523 9.214 7.40098L29.542 0.000976562H0V11.751C1.05748 10.2694 2.53985 9.14374 4.251 8.52298M10.386 9.18298C9.39804 9.54251 8.53887 10.1869 7.91712 11.0347C7.29538 11.8825 6.93898 12.8956 6.893 13.946C6.89299 13.964 6.89977 13.9814 6.91199 13.9947C6.92421 14.008 6.94098 14.0163 6.95898 14.0178C6.97698 14.0193 6.99488 14.014 7.00915 14.0029C7.02342 13.9918 7.033 13.9758 7.036 13.958C7.16204 13.1761 7.49368 12.4418 7.99694 11.8303C8.5002 11.2188 9.15698 10.7521 9.9 10.478L29.631 3.29198C29.7104 3.25984 29.798 3.25404 29.8809 3.27541C29.9638 3.29679 30.0377 3.34421 30.0917 3.41071C30.1456 3.47722 30.1768 3.55928 30.1807 3.64483C30.1845 3.73039 30.1608 3.81491 30.113 3.88598C28.251 6.83098 22.113 15.557 12.984 18.886C12.2578 19.1297 11.4822 19.1882 10.7276 19.0562C9.973 18.9242 9.26333 18.6058 8.663 18.13C8.59656 18.077 8.51773 18.0419 8.43395 18.0279C8.35017 18.0139 8.26419 18.0214 8.18414 18.0498C8.10408 18.0782 8.03259 18.1266 7.9764 18.1903C7.92021 18.254 7.88119 18.331 7.863 18.414C7.67869 19.2781 7.77297 20.1785 8.13231 20.9857C8.49164 21.793 9.09754 22.4656 9.863 22.907L18.883 28.115C20.616 29.1146 22.1443 30.4331 23.387 32.001H32V1.31598L10.386 9.18298ZM0 21.021V32.001H10.2L3.223 25.933C1.71454 24.6257 0.598748 22.9252 0 21.021Z" fill="#FFD139"/>
<path d="M60.094 12.8871C58.6964 12.8452 57.3181 13.2209 56.135 13.9661L55.981 14.0661L56.847 15.7831L57.047 15.6561C57.895 15.104 58.8871 14.8142 59.899 14.8231C61.015 14.8231 62.345 15.1701 62.345 16.8231V17.5231C61.5427 17.1714 60.675 16.9938 59.799 17.0021C58.6552 16.9391 57.5259 17.2827 56.611 17.9721C56.224 18.2977 55.9168 18.7076 55.7131 19.1705C55.5094 19.6334 55.4146 20.1369 55.436 20.6421C55.4092 21.1662 55.5122 21.6887 55.7358 22.1634C55.9595 22.6381 56.2968 23.0502 56.718 23.3631C57.6745 24.0287 58.824 24.3599 59.988 24.3051C61.5882 24.3823 63.1537 23.8225 64.342 22.7481L64.406 22.6861V16.7161C64.406 14.3161 62.796 12.8861 60.099 12.8861M62.345 21.6961C61.6578 22.1995 60.8164 22.4471 59.966 22.3961C58.442 22.3961 57.531 21.7351 57.531 20.6281C57.531 19.5211 58.431 18.8821 60.01 18.8821C60.8196 18.8669 61.6208 19.0481 62.345 19.4101V21.6961ZM84.667 21.0281C84.4232 21.4197 84.0834 21.7425 83.6798 21.966C83.2763 22.1895 82.8223 22.3062 82.361 22.3051C81.9549 22.3196 81.551 22.2387 81.1818 22.0688C80.8125 21.899 80.4883 21.645 80.235 21.3271C79.6592 20.54 79.3733 19.578 79.426 18.6041C79.3734 17.6303 79.6592 16.6683 80.235 15.8811C80.4854 15.5651 80.8062 15.312 81.1719 15.1421C81.5376 14.9723 81.938 14.8905 82.341 14.9031H82.375C82.8244 14.9013 83.2667 15.0145 83.6599 15.2321C84.0531 15.4497 84.384 15.7644 84.621 16.1461L84.743 16.3231L86.398 15.0991L86.288 14.9341C85.8655 14.2779 85.2786 13.7436 84.5857 13.3843C83.8927 13.025 83.1179 12.8533 82.338 12.8861C81.6452 12.8585 80.955 12.985 80.317 13.2565C79.6791 13.528 79.1094 13.9377 78.649 14.4561C77.6892 15.619 77.1956 17.0969 77.264 18.6031C77.1927 20.1064 77.6868 21.5819 78.649 22.7391C79.1129 23.2591 79.6864 23.6696 80.3281 23.9411C80.9698 24.2126 81.6638 24.3383 82.36 24.3091C83.1483 24.3425 83.9312 24.1663 84.6292 23.7984C85.3271 23.4306 85.915 22.8842 86.333 22.2151L86.442 22.0481L84.787 20.8481L84.667 21.0281ZM175.435 8.47613C175.171 8.47732 174.914 8.55653 174.695 8.70379C174.476 8.85104 174.306 9.05976 174.206 9.30363C174.105 9.54751 174.079 9.81564 174.131 10.0742C174.183 10.3328 174.31 10.5703 174.496 10.7568C174.683 10.9433 174.92 11.0704 175.179 11.1222C175.438 11.1739 175.706 11.1479 175.95 11.0476C176.193 10.9472 176.402 10.7769 176.549 10.5581C176.697 10.3393 176.776 10.0819 176.777 9.81813C176.781 9.64078 176.749 9.46443 176.683 9.29976C176.617 9.13508 176.519 8.9855 176.393 8.86006C176.268 8.73461 176.118 8.63591 175.953 8.56993C175.789 8.50394 175.612 8.47203 175.435 8.47613ZM71.675 12.9301C71.1345 12.8959 70.5932 12.9854 70.0924 13.1918C69.5917 13.3982 69.1445 13.716 68.785 14.1211V13.1211H66.735V24.0891H68.841V17.8051C68.8051 17.0477 69.0322 16.3011 69.484 15.6921C69.7111 15.4278 69.9974 15.2206 70.3195 15.0876C70.6416 14.9545 70.9905 14.8992 71.338 14.9261C72.738 14.9261 73.422 15.7331 73.422 17.3941V24.0941H75.527V17.1051C75.585 15.9953 75.2201 14.9047 74.506 14.0531C74.1421 13.6744 73.7011 13.3782 73.2129 13.1845C72.7247 12.9908 72.2006 12.904 71.676 12.9301M187.493 14.4661C186.464 13.453 185.078 12.8851 183.634 12.8851C182.19 12.8851 180.804 13.453 179.775 14.4661C178.795 15.6162 178.288 17.0948 178.355 18.6041C178.289 20.1095 178.796 21.5839 179.774 22.7301C180.803 23.7436 182.189 24.3117 183.634 24.3117C185.078 24.3117 186.464 23.7436 187.493 22.7301C188.471 21.5837 188.979 20.1089 188.913 18.6031C188.98 17.0938 188.473 15.6162 187.493 14.4661ZM185.902 21.3351C185.613 21.648 185.262 21.8977 184.872 22.0685C184.482 22.2392 184.06 22.3274 183.635 22.3274C183.209 22.3274 182.787 22.2392 182.397 22.0685C182.007 21.8977 181.656 21.648 181.367 21.3351C180.766 20.5556 180.465 19.5868 180.517 18.6041C180.465 17.6244 180.767 16.6585 181.368 15.8831C181.655 15.5676 182.005 15.3155 182.395 15.1431C182.785 14.9706 183.207 14.8815 183.634 14.8815C184.061 14.8815 184.483 14.9706 184.873 15.1431C185.263 15.3155 185.613 15.5676 185.9 15.8831C186.494 16.6622 186.792 17.6267 186.742 18.6051C186.793 19.5858 186.495 20.553 185.903 21.3361M51.863 15.6891C52.4772 15.3465 52.9798 14.8342 53.3105 14.2135C53.6412 13.5929 53.7862 12.89 53.728 12.1891C53.728 9.47613 51.918 7.98213 48.628 7.98213H43.028V24.0891H49.102C50.4734 24.1811 51.8279 23.7442 52.887 22.8681C53.328 22.4461 53.6732 21.9344 53.8994 21.3675C54.1256 20.8006 54.2274 20.1918 54.198 19.5821C54.2361 18.6438 53.968 17.7186 53.434 16.9461C53.0251 16.3982 52.4815 15.9652 51.856 15.6891M45.202 10.0061H48.281C50.581 10.0061 51.56 10.7141 51.56 12.3741C51.56 14.0051 50.578 14.7981 48.56 14.7981H45.203L45.202 10.0061ZM48.714 22.0621H45.202V16.8141H48.67C50.196 16.8141 52.016 17.2901 52.016 19.5591C52.005 21.2431 50.926 22.0591 48.716 22.0591M149.116 22.2371C148.932 22.2584 148.745 22.2428 148.567 22.1913C148.389 22.1398 148.223 22.0534 148.078 21.9371C147.839 21.5526 147.737 21.0979 147.791 20.6481V15.1041H150.179V13.1221H147.791V9.95413H145.696V13.1221H144.263V15.1051H145.696V20.9051C145.696 23.2631 146.587 24.2241 148.771 24.2241C149.229 24.2408 149.687 24.1926 150.132 24.0811L150.279 24.0361V22.1061L150.031 22.1541C149.729 22.2112 149.423 22.2397 149.116 22.2391M156.092 12.8871C155.394 12.8615 154.698 12.9935 154.058 13.2732C153.417 13.553 152.848 13.9733 152.392 14.5031C151.435 15.6498 150.936 17.1104 150.992 18.6031C150.928 20.1029 151.431 21.5718 152.4 22.7181C152.885 23.2489 153.48 23.6666 154.144 23.9417C154.809 24.2168 155.525 24.3426 156.243 24.3101C157.059 24.3451 157.873 24.1932 158.621 23.866C159.37 23.5388 160.034 23.045 160.563 22.4221L160.663 22.2841L159.391 20.8841L159.237 21.0581C158.888 21.4706 158.452 21.8009 157.961 22.0256C157.469 22.2503 156.934 22.3638 156.394 22.3581C155.963 22.3781 155.533 22.3063 155.133 22.1473C154.732 21.9883 154.37 21.7459 154.07 21.4361C153.502 20.7899 153.17 19.9696 153.13 19.1101H160.814L160.834 18.9241C160.874 18.5922 160.897 18.2584 160.902 17.9241C160.957 16.5863 160.481 15.2809 159.578 14.2921C159.128 13.8269 158.586 13.4617 157.985 13.2205C157.385 12.9792 156.741 12.8674 156.094 12.8921M153.294 17.2131C153.44 16.571 153.778 15.9885 154.263 15.5431C154.779 15.0666 155.461 14.8113 156.163 14.8321C156.494 14.8196 156.825 14.8746 157.134 14.9939C157.444 15.1132 157.726 15.2943 157.963 15.5261C158.41 15.9853 158.695 16.5781 158.773 17.2141L153.294 17.2131ZM167.308 12.8921C166.427 12.8857 165.553 13.0368 164.725 13.3381C164.01 13.5859 163.346 13.9583 162.761 14.4381L162.689 14.5011V28.6431H164.795V23.3911C165.64 24.0127 166.671 24.3299 167.719 24.2911C168.377 24.3136 169.031 24.1879 169.633 23.9235C170.235 23.659 170.771 23.2624 171.199 22.7631C172.111 21.5764 172.566 20.1015 172.482 18.6071C172.575 17.0776 172.083 15.5699 171.105 14.3901C170.616 13.8825 170.024 13.4859 169.368 13.2271C168.712 12.9683 168.009 12.8534 167.305 12.8901M167.394 22.3091C166.915 22.3202 166.439 22.2324 165.995 22.0513C165.551 21.8701 165.149 21.5994 164.815 21.2561V15.6061C165.534 15.0968 166.403 14.8417 167.283 14.8811C169.247 14.8811 170.329 16.2031 170.329 18.6041C170.329 21.0051 169.287 22.3041 167.394 22.3041M139.287 12.9291C138.746 12.895 138.205 12.9845 137.704 13.1909C137.204 13.3973 136.757 13.7151 136.397 14.1201V13.1201H134.347V24.0891H136.452V17.8051C136.416 17.0477 136.643 16.3012 137.095 15.6921C137.322 15.4278 137.608 15.2206 137.93 15.0876C138.253 14.9545 138.602 14.8992 138.949 14.9261C140.349 14.9261 141.033 15.7331 141.033 17.3941V24.0941H143.138V17.1051C143.196 15.9953 142.831 14.9047 142.117 14.0531C141.753 13.6744 141.312 13.3782 140.824 13.1845C140.336 12.9908 139.812 12.903 139.287 12.9291ZM112.131 17.7301L105.769 8.00813L105.708 7.91313H104.242V24.0891H106.392V12.6271L111.44 20.3741L111.502 20.4681H112.682L117.826 12.6781V24.0891H120.021V7.91113H118.555L112.131 17.7301ZM127.231 12.8891C126.512 12.8542 125.794 12.9775 125.129 13.2503C124.463 13.5232 123.865 13.9389 123.377 14.4681C122.397 15.6182 121.89 17.0968 121.957 18.6061C121.891 20.1115 122.398 21.5859 123.376 22.7321C124.405 23.7456 125.791 24.3137 127.236 24.3137C128.68 24.3137 130.066 23.7456 131.095 22.7321C132.073 21.5857 132.581 20.1109 132.515 18.6051C132.582 17.0958 132.075 15.6172 131.095 14.4671C130.604 13.9389 130.004 13.524 129.337 13.2513C128.669 12.9787 127.95 12.8547 127.23 12.8881M129.503 21.3371C129.214 21.65 128.863 21.8997 128.473 22.0705C128.083 22.2412 127.661 22.3294 127.236 22.3294C126.81 22.3294 126.388 22.2412 125.998 22.0705C125.608 21.8997 125.257 21.65 124.968 21.3371C124.367 20.5577 124.065 19.5889 124.117 18.6061C124.065 17.6263 124.368 16.6604 124.969 15.8851C125.256 15.5696 125.606 15.3176 125.996 15.1451C126.386 14.9726 126.808 14.8835 127.235 14.8835C127.662 14.8835 128.084 14.9726 128.474 15.1451C128.864 15.3176 129.214 15.5696 129.501 15.8851C130.095 16.6641 130.394 17.6287 130.343 18.6071C130.394 19.5879 130.097 20.555 129.504 21.3381M92.348 12.8891C91.6292 12.8542 90.9115 12.9775 90.2455 13.2503C89.5796 13.5232 88.9817 13.9389 88.494 14.4681C87.5143 15.6182 87.0069 17.0968 87.074 18.6061C87.0079 20.1115 87.515 21.5859 88.493 22.7321C89.522 23.7456 90.9083 24.3137 92.3525 24.3137C93.7968 24.3137 95.1831 23.7456 96.212 22.7321C97.1906 21.5857 97.698 20.1109 97.632 18.6051C97.6992 17.0958 97.1918 15.6171 96.212 14.4671C95.7212 13.9389 95.1212 13.5239 94.4537 13.2512C93.7862 12.9786 93.0673 12.8546 92.347 12.8881M94.62 21.3371C94.331 21.65 93.9803 21.8997 93.5901 22.0705C93.1998 22.2412 92.7785 22.3294 92.3525 22.3294C91.9266 22.3294 91.5052 22.2412 91.115 22.0705C90.7247 21.8997 90.3741 21.65 90.085 21.3371C89.4845 20.5576 89.183 19.5888 89.235 18.6061C89.1827 17.6264 89.4848 16.6605 90.086 15.8851C90.3732 15.5696 90.7231 15.3176 91.1133 15.1451C91.5035 14.9726 91.9254 14.8835 92.352 14.8835C92.7786 14.8835 93.2006 14.9726 93.5908 15.1451C93.981 15.3176 94.3309 15.5696 94.618 15.8851C95.2121 16.6642 95.5104 17.6287 95.46 18.6071C95.5105 19.5878 95.2134 20.5549 94.621 21.3381M174.37 24.0911H176.476V13.1221H174.37V24.0911Z" fill="#303336"/>
</g>
<script xmlns=""/></svg>