<svg xmlns="http://www.w3.org/2000/svg" width="32" height="32" viewBox="0 0 32 32" fill="none"><script xmlns=""/>
<path d="M12 26.666L16 29.333L20 26.666" stroke="white" stroke-width="2" stroke-linecap="round" stroke-linejoin="round"/>
<path d="M16 2.66699C17.8927 2.67253 19.7064 3.42688 21.0447 4.76525C22.3831 6.10362 23.1375 7.91725 23.143 9.80999L23.143 15.524C23.1375 17.4167 22.3831 19.2304 21.0447 20.5687C19.7064 21.9071 17.8927 22.6615 16 22.667C14.1073 22.6615 12.2936 21.9071 10.9553 20.5687C9.61689 19.2304 8.86255 17.4167 8.85701 15.524L8.85701 9.80899C8.86281 7.91643 9.61727 6.10305 10.9556 4.76489C12.294 3.42674 14.1074 2.67253 16 2.66699Z" stroke="white" stroke-width="2" stroke-linecap="round" stroke-linejoin="round"/>
<path d="M16 16.9521V14.0951" stroke="white" stroke-width="2" stroke-linecap="round" stroke-linejoin="round"/>
<script xmlns=""/></svg>